<?xml version="1.0" encoding="utf-8"?>
<!-- Generator: Adobe Illustrator 28.1.0, SVG Export Plug-In . SVG Version: 6.00 Build 0)  -->
<svg version="1.1" id="Layer_1" xmlns="http://www.w3.org/2000/svg" xmlns:xlink="http://www.w3.org/1999/xlink" x="0px" y="0px"
	 viewBox="0 0 65 65" style="enable-background:new 0 0 65 65;" xml:space="preserve">
<style type="text/css">
	.st0{fill:#492A1B;}
	.st1{fill-rule:evenodd;clip-rule:evenodd;fill:#492A1B;}
	.st2{fill:#30180F;}
	.st3{fill-rule:evenodd;clip-rule:evenodd;fill:#845F4B;}
</style>
<g>
	<path class="st0" d="M17.1,58.2c-0.1,0-0.3-0.1-0.4-0.2c-0.1-0.1-0.1-0.3-0.1-0.4c0-0.2,0.7-4.2,1.2-5.5c0.3-0.9,1-1.5,1.7-2.1
		c0.6-0.6,1.3-1.1,1.4-1.9c0.1-0.2,0.3-0.4,0.5-0.4H25c-5.1-3.5-7.7-6.9-7.7-10.1c0-6,5.8-13.8,10.9-19.4c-1-1-1.6-2.3-1.6-3.6
		c0-3,2.6-5.4,5.9-5.4c3.3,0,5.9,2.4,5.9,5.4c0,1.5-0.7,3-2,4c0,0-0.6,0.7-1.5,1.7c-3.3,4-5.3,7.2-5.8,9.4C28.3,33,29,36,29.5,37.8
		c0.5-2.4,1.9-7,5.1-11.3c1.3-1.8,2.8-3.4,4.6-4.8c0.1-0.1,0.2-0.1,0.3-0.1c0.1,0,0.3,0.1,0.4,0.2c5.2,6.5,7.9,11.8,7.9,15.8
		c0,3.2-2.6,6.6-7.7,10.1h3.6c0.2,0,0.4,0.2,0.5,0.4c0.2,0.7,0.8,1.3,1.4,1.9c0.7,0.6,1.4,1.2,1.7,2.2c0.4,1.3,1.1,5.3,1.1,5.5
		c0,0.1,0,0.3-0.1,0.4c-0.1,0.1-0.2,0.2-0.4,0.2H17.1z"/>
	<path class="st1" d="M49,57.7c0,0.6-0.5,1-1.1,1H17.1c-0.3,0-0.6-0.1-0.8-0.4C16,58.1,16,57.8,16,57.5l1,0.2h30.9
		c0,0-0.1-0.4-0.2-1c-0.2-1.3-0.7-3.5-1-4.4c-0.3-0.8-0.9-1.4-1.5-2c-0.7-0.6-1.3-1.2-1.6-2.1h-5.3c0.5-0.3,1-0.7,1.5-1
		c3.7-2.6,7.4-6,7.4-9.6c0-4.6-3.5-10.2-7.1-14.7c-0.2-0.3-0.4-0.5-0.7-0.8c-0.3,0.2-0.5,0.4-0.8,0.7c-1.4,1.2-2.6,2.6-3.7,4
		c-3,4.1-4.4,8.4-4.9,10.9c-0.3,1.2-0.4,1.9-0.4,1.9s-0.4-0.7-0.7-1.9c-0.6-1.8-1.1-4.8-0.3-8.2c0.7-3,4-7.2,5.9-9.6
		c0.9-1,1.5-1.7,1.5-1.7l0,0c1.1-0.9,1.8-2.2,1.8-3.6c0-2.7-2.4-4.9-5.4-4.9S27,11.9,27,14.6c0,1.3,0.6,2.5,1.6,3.4
		c0.1,0.1,0.2,0.1,0.2,0.2c-0.2,0.2-0.5,0.5-0.7,0.8c-4.3,4.8-10.4,12.6-10.4,18.6c0,3.6,3.7,7,7.4,9.6c0.5,0.4,1,0.7,1.5,1h-5.3
		c-0.2,0.9-0.9,1.5-1.6,2.1c-0.6,0.6-1.3,1.2-1.5,2c-0.3,0.9-0.8,3.1-1,4.4c-0.1,0.6-0.2,1-0.2,1l-1-0.2l0,0v-0.1
		c0-0.1,0.1-0.3,0.1-0.5c0.1-0.4,0.2-1,0.3-1.6c0.2-1.2,0.5-2.6,0.8-3.3c0.4-1.1,1.2-1.8,1.8-2.4l0.1-0.1c0.7-0.6,1.1-1,1.2-1.6
		c0.1-0.5,0.5-0.8,1-0.8h2c-1.2-0.9-2.4-1.9-3.5-3c-1.8-1.9-3.2-4.1-3.2-6.5c0-3.5,1.8-7.3,4.1-10.8c2.1-3.2,4.6-6.2,6.7-8.5
		c-0.9-1-1.4-2.3-1.4-3.7c0-3.3,3-5.9,6.5-5.9s6.5,2.6,6.5,5.9c0,1.7-0.8,3.3-2.1,4.3l0,0c0,0,0,0-0.1,0.1s-0.2,0.2-0.3,0.3
		c-0.3,0.3-0.6,0.7-1.1,1.2c-1,1.1-2.2,2.7-3.4,4.4c-1.1,1.7-2,3.4-2.4,4.7c-0.5,2.2-0.4,4.2-0.2,5.8c0-0.1,0.1-0.2,0.1-0.3
		c0.8-2.5,2.2-5.8,4.5-9c1.3-1.7,2.8-3.4,4.7-4.9c0.2-0.2,0.5-0.3,0.8-0.2c0.3,0,0.5,0.2,0.7,0.4c1.9,2.4,3.9,5.1,5.4,7.8
		s2.6,5.6,2.6,8.3c0,2.4-1.4,4.6-3.2,6.5c-1,1.1-2.2,2.1-3.5,3h2c0.5,0,0.9,0.3,1,0.8s0.5,0.9,1.2,1.5l0.1,0.1
		c0.6,0.5,1.4,1.3,1.8,2.4c0.3,0.7,0.6,2.2,0.8,3.3c0.1,0.6,0.2,1.2,0.3,1.6c0,0.2,0.1,0.4,0.1,0.5l0,0C49,57.5,49,57.6,49,57.7z"/>
	<path class="st2" d="M34.6,20c-0.7-6.1-2.1-10.2-2.1-10.2c3,0,5.4,2.2,5.4,4.9c0,1.4-0.7,2.7-1.8,3.6l0,0
		C36.1,18.3,35.5,18.9,34.6,20L34.6,20z"/>
	<path class="st2" d="M47.9,57.7H22.6c0.9-0.8,1.8-1.7,2.5-2.6c0.9-1,1.7-2.1,2.5-3.1c5.7-8.2,7.4-17.4,7.4-25.2
		c1.2-1.7,2.7-3.3,4.5-4.7c3.8,4.7,7.8,10.7,7.8,15.5c0,4.1-4.8,8-8.9,10.6h5.3c0.4,1.7,2.5,2.4,3.1,4.1
		C47.2,53.6,47.9,57.7,47.9,57.7z"/>
	<path class="st3" d="M45.3,55.7H19.7v-1h25.5L45.3,55.7L45.3,55.7z"/>
	<path class="st3" d="M43.1,51.6H21.9v-1h21.3L43.1,51.6L43.1,51.6z"/>
</g>
</svg>
