<?xml version="1.0" encoding="utf-8"?>
<!-- Generator: Adobe Illustrator 28.1.0, SVG Export Plug-In . SVG Version: 6.00 Build 0)  -->
<svg version="1.1" id="Layer_1" xmlns="http://www.w3.org/2000/svg" xmlns:xlink="http://www.w3.org/1999/xlink" x="0px" y="0px"
	 viewBox="0 0 65 65" style="enable-background:new 0 0 65 65;" xml:space="preserve">
<style type="text/css">
	.st0{clip-path:url(#SVGID_00000121270489619632268100000006908744987365269917_);}
	.st1{fill:#492A1B;}
	.st2{fill:#30180F;}
	.st3{fill:#845F4B;}
</style>
<g>
	<defs>
		<rect id="SVGID_1_" x="15" y="11.7" width="35" height="47"/>
	</defs>
	<clipPath id="SVGID_00000102528498512309263280000005799392093357315754_">
		<use xlink:href="#SVGID_1_"  style="overflow:visible;"/>
	</clipPath>
	<g style="clip-path:url(#SVGID_00000102528498512309263280000005799392093357315754_);">
		<path class="st1" d="M16.5,58c-0.2,0-0.4-0.1-0.5-0.2c-0.1-0.1-0.2-0.3-0.2-0.5L16,51c0-0.3,0.2-0.5,0.4-0.6
			c2.1-1.1,4.5-2.9,4.8-3.7c0.5-6,1-16.2,1.1-20.3c-1.9-0.1-3.5-1.3-3.8-2.9l-1.9-6.9c-0.3-1.3,0.6-1.7,1.6-2.2c0,0,0.1,0,0.1-0.1
			l2.9-1c0.1,0,0.1,0,0.2,0c0.9,0,1.6,0.5,1.9,1.2l0.8,2.8h3.9v-3.1c0-1,0.9-1.8,2.1-1.8h4.5c1.1,0,2,0.8,2,1.8v3.1h3.9l0.8-2.7
			c0,0,0-0.1,0-0.1c0.3-0.7,1.1-1.1,1.9-1.1c0.1,0,0.2,0,0.2,0l2.9,1c1.2,0.5,2.1,0.9,1.8,2.2l-1.9,6.9c-0.4,1.6-2,2.8-3.8,2.9
			c0.1,3.9,0.5,14.1,1.1,20.3c0.3,0.8,2.7,2.6,4.8,3.7c0.2,0.1,0.4,0.4,0.4,0.6l0.2,6.2c0,0.2-0.1,0.4-0.2,0.5
			c-0.1,0.2-0.3,0.2-0.5,0.2L16.5,58L16.5,58z"/>
		<path class="st1" d="M34.8,13.2c0.7,0,1.3,0.5,1.3,1.1v3.8h5.2l1-3.2c0.2-0.4,0.7-0.7,1.2-0.7l2.9,1c1.1,0.5,1.4,0.6,1.3,1.3
			l-1.9,6.9c-0.3,1.4-1.8,2.3-3.4,2.3h-0.5c0,3.4,0.5,14.6,1.1,21.1c0.5,1.6,5.2,4.2,5.2,4.2l0.2,6.2h-32l0.2-6.2
			c0,0,4.8-2.6,5.2-4.2c0.6-6.6,1.1-17.8,1.1-21.1h-0.5c-1.7,0-3.1-1-3.4-2.3l-1.9-6.9c-0.2-0.7,0.2-0.8,1.3-1.3l2.9-1
			c0.6,0,1,0.3,1.2,0.7l1,3.2h5.2v-3.8c0-0.6,0.6-1.1,1.3-1.1H34.8z M34.8,11.7h-4.5c-1.5,0-2.8,1.2-2.8,2.6v2.3h-2.6l-0.7-2.2
			c0-0.1,0-0.1-0.1-0.2c-0.4-1-1.4-1.6-2.6-1.6c-0.2,0-0.3,0-0.5,0.1l-2.9,1c0,0-0.1,0-0.1,0c-1.1,0.5-2.6,1.1-2.1,3c0,0,0,0,0,0.1
			l1.9,6.9c0.4,1.7,1.9,3,3.8,3.3c-0.1,4.4-0.6,13.7-1.1,19.4c-0.4,0.6-2.4,2.1-4.5,3.2c-0.5,0.2-0.8,0.7-0.8,1.3L15,57.2
			c0,0.4,0.1,0.8,0.4,1.1c0.3,0.3,0.7,0.5,1.1,0.5h32c0.4,0,0.8-0.2,1.1-0.5s0.4-0.7,0.4-1.1L49.8,51c0-0.5-0.3-1-0.8-1.3
			c-2-1.1-4.1-2.6-4.4-3.3c-0.6-5.8-1-15.1-1.1-19.4c1.9-0.4,3.4-1.7,3.8-3.4l1.9-6.9c0,0,0,0,0-0.1c0.4-1.9-1-2.5-2.1-3
			c0,0-0.1,0-0.2-0.1l-2.9-1c-0.2-0.1-0.3-0.1-0.5-0.1c-1.1,0-2.2,0.6-2.6,1.6c0,0.1-0.1,0.1-0.1,0.2l-0.6,2.2h-2.6v-2.3
			C37.5,12.9,36.3,11.7,34.8,11.7L34.8,11.7z"/>
		<path class="st2" d="M24.3,57.2C37,42.4,34.5,21.2,33,13.2h1.8c0.7,0,1.3,0.5,1.3,1.1v3.8h5.2l1-3.2c0.2-0.4,0.7-0.7,1.2-0.7
			l2.9,1c1.1,0.5,1.4,0.6,1.3,1.3l-1.9,6.9c-0.3,1.4-1.8,2.3-3.4,2.3h-0.5C42,29,42.4,40.2,43,46.8c0.5,1.6,5.2,4.2,5.2,4.2l0.2,6.2
			H24.3z"/>
		<path class="st3" d="M45.5,53.9h-26v1h26V53.9z"/>
		<path class="st3" d="M44.1,50.1H20.5v1h23.6V50.1z"/>
		<path class="st3" d="M40.5,25.2h-16v1h16V25.2z"/>
	</g>
</g>
</svg>
