<?xml version="1.0" encoding="utf-8"?>
<!-- Generator: Adobe Illustrator 28.1.0, SVG Export Plug-In . SVG Version: 6.00 Build 0)  -->
<svg version="1.1" id="Layer_1" xmlns="http://www.w3.org/2000/svg" xmlns:xlink="http://www.w3.org/1999/xlink" x="0px" y="0px"
	 viewBox="0 0 65 65" style="enable-background:new 0 0 65 65;" xml:space="preserve">
<style type="text/css">
	.st0{fill:#492A1B;}
	.st1{fill-rule:evenodd;clip-rule:evenodd;fill:#492A1B;}
	.st2{fill:#30180F;}
	.st3{fill-rule:evenodd;clip-rule:evenodd;fill:#845F4B;}
</style>
<g>
	<path class="st0" d="M20.8,58.3c-0.3,0-0.5-0.2-0.5-0.5v-7.5C13.8,46.2,6.6,36.5,6.5,29.4c-0.1-2.7,0.9-4.8,2.9-6.1
		c1.2-0.8,2.5-1.2,3.9-1.2c0.2,0,0.3,0,0.5,0c0,0,0,0,0,0c2.2,0,5.4,0.7,9,4c0.3-1.8,1.5-5.5,6.2-8.4l0.6-3.5h-3.7
		c-0.3,0-0.5-0.2-0.5-0.5V9.1c0-0.3,0.2-0.5,0.5-0.5h3.8V4.8c0-0.3,0.2-0.5,0.5-0.5h4.9c0.3,0,0.5,0.2,0.5,0.5v3.8h3.8
		c0.3,0,0.5,0.2,0.5,0.5v4.6c0,0.3-0.2,0.5-0.5,0.5h-3.7l0.6,3.5c4.7,2.8,5.9,6.5,6.2,8.3c2.8-2.5,5.9-3.9,8.8-3.9
		c1.6,0,3.1,0.4,4.3,1.2c1.9,1.3,2.9,3.3,2.8,5.9c-0.1,6.5-6.4,16.1-13.6,20.8v7.7c0,0.3-0.2,0.5-0.5,0.5H20.8z"/>
	<path class="st1" d="M44.4,49.8L44.4,49.8L44.4,49.8c0.3-0.2,0.6-0.4,0.8-0.6c8.8-6,17.1-20.7,10-25.5c-2.9-2-7.8-1.5-12.3,2.4
		c-0.3,0.3-0.6,0.6-0.9,0.9c0-0.2,0-0.6-0.2-1.3c-0.4-1.8-1.7-5.2-6.2-7.8L35,13.7h4.3V9.1H35V4.8h-4.9v4.3h-4.3v4.6H30L29.4,18
		c-4.5,2.6-5.8,6.1-6.2,7.9C23,26.7,23,27.2,23,27.2c-0.3-0.3-0.6-0.6-0.9-0.9c-2.9-2.6-5.9-3.7-8.4-3.7c-1.4,0-2.8,0.4-4,1.1
		c-7.4,4.9,2,20.6,11.1,26.2v7.8h23.7L44.4,49.8L44.4,49.8z M19.8,50.5v7.3c0,0.6,0.5,1,1,1h23.7c0.6,0,1-0.5,1-1v-7.4
		c4.5-3,9-8.2,11.5-13.4c1.3-2.7,2.1-5.4,2.1-7.9s-0.9-4.7-3.1-6.2c-3.3-2.3-8.5-1.7-13.1,2.1c-0.6-2-2-5.2-6.1-7.7l-0.5-2.7h3.1
		c0.6,0,1-0.5,1-1V9.1c0-0.6-0.5-1-1-1H36V4.8c0-0.6-0.5-1-1-1h-4.9c-0.6,0-1,0.5-1,1V8h-3.2c-0.6,0-1,0.5-1,1v4.6c0,0.6,0.5,1,1,1
		H29l-0.4,2.7c-3.1,2-4.8,4.3-5.6,6.2c-0.2,0.6-0.4,1.1-0.5,1.5c-2.9-2.4-5.9-3.5-8.7-3.5c-1.6,0-3.2,0.4-4.6,1.3l0,0
		C6.9,24.4,6,26.6,6,29.1s0.8,5.2,2.1,7.9C10.7,42.3,15.2,47.5,19.8,50.5z"/>
	<path class="st2" d="M44.4,49.8v8H20.8c16.3-25.5,11.7-53,11.7-53H35V9h4.3v4.6H35l0.8,4.3c6,3.5,6.3,8.4,6.3,9.1
		c4.8-4.8,10.1-5.4,13.3-3.3C62.7,28.6,53.5,44.1,44.4,49.8L44.4,49.8z"/>
	<path class="st3" d="M17.7,26.7c-1.8-1-3.6-1.2-5.2-0.1c-0.9,0.5-1.3,1.3-1.5,2.1c-0.2,0.9,0,1.9,0.3,3.1c0.8,2.4,2.5,5.2,4.6,7.8
		c2,2.6,4.3,5.1,6.1,7c0.9,0.9,1.6,1.7,2.2,2.2c0.3,0.3,0.5,0.5,0.6,0.6s0.1,0.1,0.2,0.2l0,0l0,0c0,0,0,0-0.3,0.4s-0.3,0.4-0.3,0.4
		l0,0l0,0l0,0c0,0-0.1-0.1-0.2-0.2c-0.1-0.1-0.4-0.3-0.6-0.6c-0.5-0.5-1.3-1.3-2.2-2.2c-1.8-1.9-4.1-4.4-6.2-7.1
		c-2.1-2.7-3.9-5.6-4.7-8.1c-0.4-1.3-0.6-2.5-0.4-3.6c0.2-1.1,0.8-2.1,1.9-2.8c2-1.3,4.2-1.1,6.3,0.1c2,1.2,4,3.3,5.7,5.9
		c3.4,5.2,6,12.4,6.3,18.3l-1,0.1c-0.3-5.7-2.8-12.7-6.1-17.8C21.4,29.7,19.6,27.8,17.7,26.7z"/>
	<path class="st3" d="M46.7,25.8c2-1.2,4.2-1.4,6.3-0.1c1.1,0.7,1.7,1.7,1.9,2.8c0.2,1.1,0,2.3-0.4,3.6c-0.8,2.6-2.7,5.4-4.7,8.1
		c-2.1,2.7-4.4,5.2-6.1,7.1c-0.9,0.9-1.7,1.7-2.2,2.2c-0.3,0.3-0.5,0.5-0.6,0.6s-0.1,0.1-0.2,0.2l0,0l0,0c0,0,0,0-0.3-0.4
		s-0.3-0.4-0.3-0.4l0,0l0,0c0,0,0.1-0.1,0.2-0.2c0.1-0.1,0.4-0.3,0.6-0.6c0.5-0.5,1.3-1.3,2.2-2.2c1.8-1.8,4-4.3,6.1-7
		c2-2.7,3.8-5.4,4.6-7.8c0.4-1.2,0.5-2.2,0.3-3.1s-0.6-1.6-1.5-2.1c-1.6-1-3.4-0.9-5.2,0.1c-1.8,1.1-3.7,3-5.3,5.5
		c-3.3,5-5.8,12.1-6.1,17.8l-1-0.1c0.3-5.9,2.9-13.1,6.3-18.3C42.7,29.1,44.7,27,46.7,25.8z"/>
	<path class="st3" d="M32.5,20.8L32.5,20.8c2.6,0.2,4.4,1.2,5.7,2.6c1.2,1.4,1.8,3.2,2.1,5c0.3,1.7,0.3,3.4,0.2,4.7
		c0,0.6-0.1,1.2-0.2,1.5c0,0.2-0.1,0.3-0.1,0.4c0,0.1,0,0.1,0,0.1l0,0l0,0l0,0c0,0,0,0-0.5-0.1c-0.5,0-0.5,0-0.5,0l0,0l0,0l0,0v-0.1
		c0-0.1,0-0.2,0.1-0.4c0.1-0.4,0.1-0.9,0.2-1.5c0.1-1.2,0.1-2.8-0.2-4.5c-0.3-1.6-0.8-3.2-1.9-4.5c-1-1.2-2.6-2.1-4.9-2.3
		c-2.3,0.2-3.8,1.1-4.8,2.3c-1.1,1.2-1.6,2.8-1.9,4.5c-0.3,1.6-0.3,3.2-0.2,4.5c0,0.6,0.1,1.1,0.2,1.5c0,0.2,0,0.3,0.1,0.4V35l0,0
		l0,0l0,0c0,0,0,0-0.5,0.1s-0.5,0.1-0.5,0.1l0,0l0,0l0,0v-0.1c0-0.1,0-0.2-0.1-0.4c-0.1-0.4-0.1-0.9-0.2-1.5c-0.1-1.3-0.1-3,0.2-4.7
		c0.3-1.7,0.9-3.5,2.1-5C28.1,22,29.9,20.9,32.5,20.8L32.5,20.8z"/>
	<path class="st3" d="M42.5,50.5h-20v-1h20V50.5z"/>
	<path class="st3" d="M42.5,54.9h-20v-1h20V54.9z"/>
</g>
</svg>
