<?xml version="1.0" encoding="utf-8"?>
<!-- Generator: Adobe Illustrator 28.1.0, SVG Export Plug-In . SVG Version: 6.00 Build 0)  -->
<svg version="1.1" id="Layer_1" xmlns="http://www.w3.org/2000/svg" xmlns:xlink="http://www.w3.org/1999/xlink" x="0px" y="0px"
	 viewBox="0 0 65 65" style="enable-background:new 0 0 65 65;" xml:space="preserve">
<style type="text/css">
	.st0{fill:#492A1B;}
	.st1{fill-rule:evenodd;clip-rule:evenodd;fill:#492A1B;}
	.st2{fill:#30180F;}
	.st3{fill-rule:evenodd;clip-rule:evenodd;fill:#845F4B;}
</style>
<g>
	<path class="st0" d="M21.4,58.1c-0.3,0-0.5-0.2-0.5-0.5l-0.2-7c-0.4-1-1-2.2-1.9-3.2c-0.4-0.5-0.9-1-1.3-1.4
		c-0.1-0.1-0.1-0.1-0.1-0.2L9.8,24.7c-0.2,0.1-0.5,0.1-0.8,0.1c-2.3,0-4.1-1.8-4.1-4c0-2.2,1.8-4,4.1-4c2.3,0,4.1,1.8,4.1,4
		c0,1-0.3,1.9-0.9,2.6l9,10.5l-1.3-13.6c-2.1-0.2-3.7-1.9-3.7-4c0-2.2,1.8-4,4.1-4c2.3,0,4.1,1.8,4.1,4c0,1.4-0.7,2.6-1.8,3.4
		l6.2,12.2l2.5-14.8c-1.7-0.6-2.8-2.1-2.8-3.9c0-2.2,1.8-4,4.1-4c2.3,0,4.1,1.8,4.1,4c0,1.7-1.1,3.2-2.6,3.7l2.5,14.8l6.1-12.1
		c-1.3-0.8-2-2-2-3.5c0-2.2,1.8-4,4.1-4c2.2,0,4.1,1.9,4.1,4.1c0,2.1-1.5,3.8-3.5,4L43.8,34l9.1-10.7c-0.6-0.7-1-1.6-1-2.6
		c0-2.2,1.8-4,4.1-4c2.3,0,4.1,1.8,4.1,4c0,2.2-1.8,4-4.1,4c-0.3,0-0.5,0-0.8,0L48.1,44l-0.6,1.8c0,0.1-0.1,0.2-0.2,0.2
		c-0.5,0.4-0.8,0.8-1.2,1.3c-0.8,1-1.5,2.1-2,3.3l-0.2,7c0,0.3-0.2,0.5-0.5,0.5H21.4z"/>
	<path class="st1" d="M33.3,16.7l2.8,16.7l7-13.9c-0.2-0.1-0.3-0.1-0.5-0.2c-1-0.6-1.7-1.8-1.7-3c0-2,1.6-3.5,3.6-3.5
		s3.6,1.6,3.6,3.5s-1.6,3.5-3.5,3.5l-1.5,15.7l10.4-12.1c-0.7-0.6-1.2-1.6-1.2-2.6c0-2,1.6-3.5,3.6-3.5s3.6,1.6,3.6,3.5
		c0,2-1.6,3.5-3.6,3.5c-0.4,0-0.7,0-1.1-0.1L47.8,44l-0.6,1.8c-0.5,0.4-0.9,0.9-1.3,1.4c-0.9,1-1.6,2.2-2.1,3.5l-0.2,7h-22l-0.2-7.1
		c-0.5-1.2-1.2-2.4-2-3.4c-0.4-0.5-0.9-1-1.3-1.4l-7.8-21.6c-0.3,0.1-0.7,0.2-1.1,0.2c-2,0-3.6-1.6-3.6-3.5c0-2,1.6-3.5,3.6-3.5
		s3.6,1.6,3.6,3.5c0,1-0.4,1.9-1.1,2.6l10.3,12l-1.5-15.6h-0.1c-2,0-3.6-1.6-3.6-3.5s1.6-3.5,3.6-3.5s3.6,1.6,3.6,3.5
		c0,1.3-0.8,2.5-1.9,3.1c-0.1,0-0.1,0.1-0.2,0.1l7.1,14l2.8-16.7c-1.6-0.3-2.9-1.8-2.9-3.5c0-2,1.6-3.5,3.6-3.5s3.6,1.6,3.6,3.5
		C36,15,34.9,16.4,33.3,16.7C33.5,16.7,33.5,16.7,33.3,16.7L33.3,16.7z M34.5,17.4c1.5-0.7,2.6-2.3,2.6-4.1c0-2.5-2.1-4.6-4.6-4.6
		s-4.6,2-4.6,4.6c0,1.9,1.1,3.5,2.8,4.2l-2.2,12.8l-5.3-10.5c1.1-0.8,1.7-2.1,1.7-3.6c0-2.5-2.1-4.6-4.6-4.6s-4.6,2-4.6,4.6
		c0,2.3,1.7,4.1,3.8,4.5l1.1,11.6l-7.7-9c0.5-0.7,0.8-1.6,0.8-2.6c0-2.5-2.1-4.6-4.6-4.6s-4.6,2-4.6,4.6c0,2.5,2.1,4.6,4.6,4.6
		c0.1,0,0.3,0,0.4,0c2.5,6.9,5,13.9,7.5,20.8c0.1,0.1,0.1,0.3,0.3,0.4c0.4,0.4,0.8,0.8,1.2,1.3l0,0c0.7,0.9,1.4,1.9,1.8,3l0.2,6.9
		c0,0.5,0.5,1,1,1h22c0.5,0,1-0.4,1-1l0.2-6.9c0.5-1.1,1.1-2.1,1.9-3.1l0,0c0.4-0.5,0.8-0.9,1.2-1.3c0.1-0.1,0.2-0.2,0.3-0.4
		l0.6-1.8l0,0l6.9-19c0.1,0,0.3,0,0.4,0c2.5,0,4.6-2,4.6-4.6c0-2.5-2.1-4.6-4.6-4.6s-4.6,2-4.6,4.6c0,1,0.3,1.9,0.8,2.6l-7.8,9
		l1.2-11.5c2.1-0.4,3.6-2.3,3.6-4.4c0-2.5-2.1-4.6-4.6-4.6s-4.6,2-4.6,4.6c0,1.5,0.7,2.8,1.9,3.7l-5.2,10.4L34.5,17.4z"/>
	<path class="st2" d="M59.5,20.8c0,0.5-0.1,0.9-0.3,1.4c-0.2,0.4-0.4,0.8-0.8,1.1c-0.3,0.3-0.7,0.6-1.2,0.8
		c-0.4,0.2-0.9,0.3-1.4,0.3c-0.4,0-0.7-0.1-1.1-0.2l-7,19.8l-0.6,1.8c-0.5,0.5-0.9,0.9-1.3,1.4c-0.9,1-1.5,2.2-2.1,3.4l-0.2,7.1h-22
		c14.5-16.9,10.9-48,10.9-48c0.9,0,1.7,0.3,2.4,0.9c0.7,0.6,1.1,1.4,1.2,2.2c0.1,0.8-0.1,1.7-0.6,2.4c-0.5,0.7-1.2,1.2-2.1,1.4
		l2.8,16.7l7-13.9c-0.8-0.4-1.5-1-1.8-1.8c-0.4-0.8-0.4-1.7-0.2-2.5c0.3-0.8,0.8-1.5,1.6-2c0.8-0.4,1.7-0.6,2.5-0.4
		c0.9,0.2,1.7,0.7,2.2,1.4s0.8,1.6,0.7,2.4c-0.1,0.9-0.5,1.7-1.2,2.3c-0.7,0.6-1.5,0.9-2.4,0.9L43,35.4l10.5-12
		c-0.4-0.4-0.8-0.9-1-1.5s-0.2-1.1-0.2-1.7c0.1-0.6,0.3-1.1,0.7-1.6s0.9-0.8,1.4-1.1c0.6-0.2,1.2-0.3,1.8-0.3s1.2,0.2,1.7,0.6
		c0.5,0.3,0.9,0.8,1.2,1.3C59.5,19.7,59.5,20.2,59.5,20.8L59.5,20.8L59.5,20.8z"/>
	<path class="st3" d="M42.5,52.2h-20v-1h20V52.2z"/>
	<path class="st3" d="M19.9,46.2c0,0,0,0-0.3-0.4s-0.3-0.4-0.3-0.4l0,0l0,0l0,0l0,0l0,0c0,0,0.1-0.1,0.2-0.1
		c0.1-0.1,0.4-0.2,0.7-0.4c0.6-0.3,1.4-0.7,2.5-1.1c2.2-0.8,5.5-1.5,9.9-1.5c4.3,0,7.6,0.8,9.9,1.5c1.1,0.4,2,0.8,2.5,1.1
		c0.3,0.1,0.5,0.3,0.7,0.4c0.1,0,0.1,0.1,0.2,0.1l0,0l0,0l0,0l0,0l0,0c0,0,0,0-0.3,0.4s-0.3,0.4-0.3,0.4l0,0l0,0l0,0
		c0,0-0.1,0-0.1-0.1c-0.1-0.1-0.3-0.2-0.6-0.3c-0.5-0.3-1.3-0.6-2.4-1c-2.1-0.7-5.3-1.5-9.5-1.5s-7.4,0.7-9.5,1.5
		c-1.1,0.4-1.9,0.7-2.4,1c-0.3,0.1-0.5,0.2-0.6,0.3C20,46.1,20,46.1,19.9,46.2C19.9,46.1,19.9,46.1,19.9,46.2L19.9,46.2L19.9,46.2z"
		/>
	<path class="st3" d="M42.5,56.2h-20v-1h20V56.2z"/>
</g>
</svg>
