<?xml version="1.0" encoding="utf-8"?>
<!-- Generator: Adobe Illustrator 28.1.0, SVG Export Plug-In . SVG Version: 6.00 Build 0)  -->
<svg version="1.1" id="Layer_1" xmlns="http://www.w3.org/2000/svg" xmlns:xlink="http://www.w3.org/1999/xlink" x="0px" y="0px"
	 viewBox="0 0 65 65" style="enable-background:new 0 0 65 65;" xml:space="preserve">
<style type="text/css">
	.st0{fill:#492A1B;}
	.st1{fill:#30180F;}
	.st2{fill:#845F4B;}
</style>
<g>
	<path class="st0" d="M17.4,57.8c-0.4,0-0.7-0.3-0.7-0.7c-0.2-5.8,2.8-8.6,5.7-11.3c0.9-0.9,1.8-1.7,2.5-2.6
		c1.7-2.1,2.5-4.5,2.5-8.7c-0.2,0-0.4,0-0.6,0c-1.3,0-3.2,0-3.7,0H23c-0.4,0-0.7-0.3-0.7-0.7V30c0-0.3,0.2-0.6,0.5-0.7l4.4-1.5
		c-1.8-1.8-2.6-4.5-2-7.3c0.7-3.2,3.1-5.7,6.1-6.3c0.6-0.1,1.2-0.1,1.7-0.1H33c3.5,0,6.5,2.3,7.6,5.7c1,2.9,0.3,5.9-1.8,7.9l4.3,1.5
		c0.3,0.1,0.5,0.4,0.5,0.7v3.9c0,0.4-0.3,0.7-0.7,0.7h-0.1c-0.4,0-2.3,0-3.7,0c-0.2,0-0.4,0-0.6,0c0,4.1,0.7,6.6,2.5,8.7
		c0.8,0.9,1.6,1.7,2.5,2.5c1,0.9,2,1.9,2.8,2.9c1.5,1.8,2.3,3.6,2.7,5.6c0.2,0.9,0.2,1.8,0.2,2.8c0,0.4-0.3,0.7-0.7,0.7H17.4z"/>
	<path class="st0" d="M32.9,14.9C32.9,14.9,33,14.9,32.9,14.9c7,0,10.1,9.3,4.5,13.2L43,30v3.9c0,0-2.3,0-3.8,0c-0.7,0-1.3,0-1.3,0
		c-0.1,4.7,0.7,7.5,2.6,9.8c1.6,1.9,3.7,3.5,5.3,5.4c1.2,1.4,2.2,3.1,2.5,5.3c0.1,0.8,0.2,1.7,0.2,2.7H17.4c-0.3-7.2,4.8-9.6,8-13.4
		c1.9-2.3,2.7-5.1,2.6-9.8c0,0-0.6,0-1.3,0c-1.5,0-3.7,0-3.8,0V30l5.5-1.9c-5.1-3.6-2.9-12,2.8-13.1C31.9,14.9,32.4,14.9,32.9,14.9z
		 M32.9,13.5c-0.5,0-1.2,0-1.8,0.1c-3.2,0.6-5.8,3.3-6.6,6.8c-0.6,2.6,0,5.1,1.5,7.1l-3.4,1.1c-0.6,0.2-1,0.7-1,1.3v3.9
		c0,0.8,0.6,1.4,1.4,1.4h0.1c0.4,0,2.2,0,3.5,0c-0.1,3.5-0.8,5.7-2.3,7.5c-0.7,0.9-1.6,1.7-2.5,2.5C19,48,15.8,51.1,16,57.2
		c0,0.8,0.6,1.3,1.4,1.3h31.2c0.8,0,1.4-0.6,1.4-1.3c0-1,0-2-0.2-3c-0.4-2.2-1.3-4.1-2.8-6c-0.9-1.1-1.9-2-2.9-3
		c-0.9-0.8-1.7-1.6-2.4-2.5c-1.5-1.8-2.2-4-2.3-7.5c1.3,0,3.1,0,3.5,0H43c0.8,0,1.4-0.6,1.4-1.4V30c0-0.6-0.4-1.1-1-1.3l-3.4-1.1
		c1.6-2.1,2.1-5,1.2-7.8C40.1,16,36.8,13.5,32.9,13.5L32.9,13.5L32.9,13.5z"/>
	<path class="st1" d="M48.8,57.1H23.7C35.9,48,34.6,24,31.4,15c0.5-0.1,1.1-0.1,1.6-0.1c6.9-0.3,10,9.3,4.5,13.2L43,30v3.9
		c0,0-5.1,0-5.1,0c-0.1,4.7,0.7,7.5,2.6,9.8c1.6,1.9,3.8,3.3,5.5,5.3C48,52.1,48.6,53.6,48.8,57.1z"/>
	<path class="st2" d="M45,53.5H21v1h24V53.5z"/>
	<path class="st2" d="M44,50.5H22v1h22V50.5z"/>
	<path class="st2" d="M36.3,33.5H30v0.9h6.3V33.5z"/>
</g>
</svg>
