<?xml version="1.0" encoding="utf-8"?>
<!-- Generator: Adobe Illustrator 28.1.0, SVG Export Plug-In . SVG Version: 6.00 Build 0)  -->
<svg version="1.1" id="Layer_1" xmlns="http://www.w3.org/2000/svg" xmlns:xlink="http://www.w3.org/1999/xlink" x="0px" y="0px"
	 viewBox="0 0 65 65" style="enable-background:new 0 0 65 65;" xml:space="preserve">
<style type="text/css">
	.st0{clip-path:url(#SVGID_00000039114487897683709810000017796676239609323920_);}
	.st1{fill:#FFFFFF;}
	.st2{fill:#492A1B;}
	.st3{opacity:0.15;fill:#492A1B;enable-background:new    ;}
	.st4{fill:#845F4B;}
	.st5{clip-path:url(#SVGID_00000062881620482615417870000010077672376646719934_);}
</style>
<g>
	<g>
		<g>
			<defs>
				<rect id="SVGID_1_" x="15" y="11.9" width="35" height="47"/>
			</defs>
			<clipPath id="SVGID_00000075129989423404487760000009162369066095160463_">
				<use xlink:href="#SVGID_1_"  style="overflow:visible;"/>
			</clipPath>
			<g style="clip-path:url(#SVGID_00000075129989423404487760000009162369066095160463_);">
				<path class="st1" d="M48.8,57.7h-32l0.2-6.2c0,0,4.8-2.6,5.2-4.2c0.5-6.6,1.1-17.8,1.1-21.1h-0.5c-1.7,0-3.1-1-3.4-2.3L17.5,17
					c-0.2-0.7,0.2-0.8,1.3-1.3l2.9-1c0.6,0,1,0.3,1.2,0.7l1,3.2h5.2v-3.8c0-0.6,0.6-1.1,1.3-1.1H35c0.7,0,1.3,0.5,1.3,1.1v3.8h5.2
					l1-3.2c0.2-0.4,0.7-0.7,1.2-0.7l2.9,1c1.1,0.5,1.4,0.6,1.3,1.3L46,23.8c-0.3,1.4-1.8,2.3-3.4,2.3h-0.5
					c0.1,3.4,0.5,14.6,1.1,21.1c0.5,1.6,5.2,4.2,5.2,4.2L48.8,57.7z"/>
				<path class="st2" d="M48.8,58.4h-32c-0.2,0-0.4-0.1-0.5-0.2c-0.1-0.1-0.2-0.3-0.2-0.5l0.2-6.2c0-0.3,0.2-0.5,0.4-0.6
					c2.1-1.1,4.5-2.9,4.8-3.7c0.5-6,1-16.2,1.1-20.3c-1.9-0.1-3.4-1.3-3.8-2.9l-1.9-6.8c-0.3-1.3,0.6-1.7,1.6-2.2c0,0,0.1,0,0.1-0.1
					l2.9-1c0.1,0,0.1,0,0.2,0c0.9,0,1.6,0.5,1.9,1.2l0.8,2.8h3.9v-3.1c0-1,0.9-1.8,2-1.8H35c1.1,0,2.1,0.8,2.1,1.8v3.1H41l0.8-2.7
					v-0.1c0.3-0.7,1.1-1.1,1.9-1.1c0.1,0,0.2,0,0.2,0l2.9,1c1.2,0.5,2.1,0.9,1.8,2.2L46.8,24c-0.4,1.6-2,2.8-3.8,2.9
					c0,3.9,0.4,14.1,1,20.2c0.3,0.8,2.7,2.6,4.8,3.7c0.2,0.1,0.4,0.4,0.4,0.6l0.2,6.2c0,0.2-0.1,0.4-0.2,0.5
					C49.1,58.4,48.9,58.4,48.8,58.4L48.8,58.4z M17.5,56.9H48l-0.2-5c-1.3-0.8-4.7-2.8-5.2-4.5v-0.1c-0.7-6.6-1.1-18-1.1-21.2
					c0-0.2,0.1-0.4,0.2-0.5c0.1-0.1,0.3-0.2,0.5-0.2h0.5c1.3,0,2.4-0.7,2.7-1.8l1.9-6.9c-0.1-0.1-0.5-0.3-0.8-0.4l-2.8-0.9
					c-0.2,0-0.4,0.1-0.4,0.2l-1,3.2c-0.1,0.3-0.4,0.5-0.7,0.5h-5.2c-0.4,0-0.8-0.3-0.8-0.8v-3.8c0-0.1-0.2-0.3-0.5-0.3h-4.5
					c-0.3,0-0.5,0.2-0.5,0.3v3.8c0,0.4-0.3,0.8-0.8,0.8H24c-0.3,0-0.6-0.2-0.7-0.5l-1-3.2c0,0-0.2-0.1-0.4-0.2l-2.8,0.9
					c-0.3,0.1-0.6,0.3-0.8,0.4l0,0l1.9,6.8c0.2,1,1.4,1.8,2.7,1.8h0.5c0.2,0,0.4,0.1,0.5,0.2s0.2,0.3,0.2,0.5
					C24,29.7,23.5,40.8,23,47.3v0.1c-0.5,1.7-3.9,3.7-5.2,4.5L17.5,56.9L17.5,56.9z"/>
				<path class="st3" d="M24.6,57.7c12.7-14.8,10.2-36.1,8.6-44H35c0.7,0,1.3,0.5,1.3,1.1v3.8h5.2l1-3.2c0.2-0.4,0.7-0.7,1.2-0.7
					l2.9,1c1.1,0.5,1.4,0.6,1.3,1.3L46,23.8c-0.3,1.4-1.8,2.3-3.4,2.3h-0.5c0.1,3.4,0.5,14.6,1.1,21.1c0.5,1.6,5.2,4.2,5.2,4.2
					l0.2,6.2h-24V57.7z"/>
				<path class="st4" d="M45.8,54.3h-26v1h26V54.3z"/>
				<path class="st4" d="M44.3,50.5H20.8v1h23.6v-1H44.3z"/>
				<path class="st4" d="M40.8,25.6h-16v1h16V25.6z"/>
				<g>
					<g>
						<defs>
							<rect id="SVGID_00000057136249532500599160000011189372645546564485_" x="15" y="11.9" width="35" height="47"/>
						</defs>
						<clipPath id="SVGID_00000180345470341726865120000009648787471218221737_">
							<use xlink:href="#SVGID_00000057136249532500599160000011189372645546564485_"  style="overflow:visible;"/>
						</clipPath>
						<g style="clip-path:url(#SVGID_00000180345470341726865120000009648787471218221737_);">
							<path class="st1" d="M16.5,58.2c-0.2,0-0.4-0.1-0.5-0.2c-0.1-0.1-0.2-0.3-0.2-0.5l0.2-6.2c0-0.3,0.2-0.5,0.4-0.6
								c2.1-1.1,4.5-2.9,4.8-3.7c0.5-6,1-16.2,1.1-20.3c-1.9-0.1-3.5-1.3-3.8-2.9l-1.9-6.9c-0.3-1.3,0.6-1.7,1.6-2.2
								c0,0,0.1,0,0.1-0.1l2.9-1c0.1,0,0.1,0,0.2,0c0.9,0,1.6,0.5,1.9,1.2l0.8,2.8H28v-3.1c0-1,0.9-1.8,2.1-1.8h4.5
								c1.1,0,2,0.8,2,1.8v3.1h3.9l0.8-2.7v-0.1c0.3-0.7,1.1-1.2,1.9-1.2c0.1,0,0.2,0,0.2,0l2.9,1c1.2,0.5,2.1,0.9,1.8,2.2l-1.9,6.9
								c-0.4,1.6-2,2.8-3.8,2.9c0.1,3.9,0.5,14.1,1.1,20.3c0.3,0.8,2.7,2.6,4.8,3.7c0.2,0.1,0.4,0.4,0.4,0.6l0.2,6.2
								c0,0.2-0.1,0.4-0.2,0.5c-0.1,0.2-0.3,0.2-0.5,0.2L16.5,58.2L16.5,58.2z"/>
							<path class="st2" d="M34.8,13.4c0.7,0,1.3,0.5,1.3,1.1v3.8h5.2l1-3.2c0.2-0.4,0.7-0.7,1.2-0.7l2.9,1c1.1,0.5,1.4,0.6,1.3,1.3
								l-1.9,6.9c-0.3,1.4-1.8,2.3-3.4,2.3h-0.5c0,3.4,0.5,14.6,1.1,21.1c0.5,1.6,5.2,4.2,5.2,4.2l0.2,6.2h-32l0.2-6.2
								c0,0,4.8-2.6,5.2-4.2c0.6-6.6,1.1-17.8,1.1-21.1h-0.5c-1.7,0-3.1-1-3.4-2.3l-1.9-6.9c-0.2-0.7,0.2-0.8,1.3-1.3l2.9-1
								c0.6,0,1,0.3,1.2,0.7l1,3.2h5.2v-3.8c0-0.6,0.6-1.1,1.3-1.1C30,13.4,34.8,13.4,34.8,13.4z M34.8,11.9h-4.5
								c-1.5,0-2.8,1.2-2.8,2.6v2.3h-2.6l-0.7-2.2c0-0.1,0-0.1-0.1-0.2c-0.4-1-1.4-1.6-2.6-1.6c-0.2,0-0.3,0-0.5,0.1l-2.9,1H18
								c-1.1,0.5-2.6,1.1-2.1,3c0,0,0,0,0,0.1l1.9,6.9c0.4,1.7,1.9,3,3.8,3.3c-0.1,4.4-0.6,13.7-1.1,19.4c-0.4,0.6-2.4,2.1-4.5,3.2
								c-0.5,0.2-0.8,0.7-0.8,1.3L15,57.4c0,0.4,0.1,0.8,0.4,1.1c0.3,0.3,0.7,0.5,1.1,0.5h32c0.4,0,0.8-0.2,1.1-0.5s0.4-0.7,0.4-1.1
								l-0.2-6.2c0-0.5-0.3-1-0.8-1.3c-2-1.1-4.1-2.6-4.4-3.3c-0.6-5.8-1-15.1-1.1-19.4c1.9-0.4,3.4-1.7,3.8-3.4l1.9-6.9
								c0,0,0,0,0-0.1c0.4-1.9-1-2.5-2.1-3c0,0-0.1,0-0.2-0.1l-2.9-1c-0.2-0.1-0.3-0.1-0.5-0.1c-1.1,0-2.2,0.6-2.6,1.6
								c0,0.1-0.1,0.1-0.1,0.2l-0.6,2.2h-2.6v-2.3C37.5,13.1,36.3,11.9,34.8,11.9L34.8,11.9z"/>
							<path class="st3" d="M24.3,57.4c12.7-14.8,10.2-36,8.7-44h1.8c0.7,0,1.3,0.5,1.3,1.1v3.8h5.2l1-3.2c0.2-0.4,0.7-0.7,1.2-0.7
								l2.9,1c1.1,0.5,1.4,0.6,1.3,1.3l-1.9,6.9c-0.3,1.4-1.8,2.3-3.4,2.3h-0.5C42,29.2,42.4,40.4,43,47c0.5,1.6,5.2,4.2,5.2,4.2
								l0.2,6.2H24.3z"/>
							<path class="st4" d="M45.5,54.1h-26v1h26V54.1z"/>
							<path class="st4" d="M44.1,50.3H20.5v1h23.6V50.3z"/>
							<path class="st4" d="M40.5,25.4h-16v1h16V25.4z"/>
						</g>
					</g>
				</g>
			</g>
		</g>
	</g>
</g>
</svg>
