<?xml version="1.0" encoding="utf-8"?>
<!-- Generator: Adobe Illustrator 28.1.0, SVG Export Plug-In . SVG Version: 6.00 Build 0)  -->
<svg version="1.1" id="Layer_1" xmlns="http://www.w3.org/2000/svg" xmlns:xlink="http://www.w3.org/1999/xlink" x="0px" y="0px"
	 viewBox="0 0 65 65" style="enable-background:new 0 0 65 65;" xml:space="preserve">
<style type="text/css">
	.st0{fill:#FFFFFF;stroke:#FFFFFF;stroke-miterlimit:10;}
	.st1{fill-rule:evenodd;clip-rule:evenodd;fill:#492A1B;}
	.st2{opacity:0.15;fill:#492A1B;enable-background:new    ;}
	.st3{fill-rule:evenodd;clip-rule:evenodd;fill:#845F4B;}
</style>
<g>
	<path class="st0" d="M33.4,17.3L33.4,17.3c1.6-0.4,2.7-1.7,2.7-3.4c0-1.9-1.6-3.5-3.6-3.5s-3.6,1.6-3.6,3.5c0,1.4,0.8,2.5,2,3.1
		c0.5,0.2,0.8,0.7,0.8,1.3l-2.1,12.5c-0.2,0.9-1.4,1.1-1.9,0.3L22.5,21c-0.3-0.5,0-1.1,0.4-1.5c0.7-0.6,1.2-1.6,1.2-2.6
		c0-1.9-1.6-3.5-3.6-3.5s-3.6,1.6-3.6,3.5s1.6,3.5,3.6,3.5c0.1,0,0.1,0.1,0.1,0.1l1.2,12c0.1,1-1.1,1.5-1.7,0.8l-7.6-8.7
		c-0.4-0.4-0.3-1,0-1.5S13,22,13,21.3c0-1.9-1.6-3.5-3.6-3.5s-3.6,1.6-3.6,3.5s1.6,3.5,3.6,3.5c0.1,0,0.1,0,0.2,0
		c0.5,0,1.1,0.2,1.2,0.7l7.4,20.1c0.1,0.1,0.1,0.3,0.3,0.4c0.4,0.4,0.7,0.8,1.1,1.2c0.8,1,1.5,2.1,2,3.2c0,0.1,0.1,0.2,0.1,0.3
		l0.2,6.7h21c0.5,0,1-0.4,1-1l0.2-5.8c0-0.1,0-0.2,0.1-0.4c0.5-1.2,1.2-2.2,2-3.2c0.3-0.4,0.7-0.8,1.1-1.2c0.1-0.1,0.2-0.2,0.3-0.4
		l0.5-1.5l6.8-18.6c0.2-0.5,0.7-0.8,1.2-0.7h0.1c2,0,3.6-1.6,3.6-3.5s-1.6-3.5-3.6-3.5s-3.6,1.6-3.6,3.5c0,0.7,0.2,1.3,0.5,1.8
		s0.3,1.1,0,1.5l-7.7,8.7c-0.6,0.7-1.8,0.2-1.7-0.8l1.1-11.4c0.1-0.5,0.5-0.9,1-1c1.5-0.4,2.7-1.8,2.7-3.4c0-1.9-1.6-3.5-3.6-3.5
		s-3.6,1.6-3.6,3.5c0,1.1,0.5,2,1.3,2.6c0.5,0.4,0.7,1,0.4,1.5l-5.2,10c-0.4,0.9-1.7,0.7-1.9-0.3L33.4,17.3L33.4,17.3z"/>
	<path class="st1" d="M33.4,17.3L33.4,17.3c1.6-0.4,2.7-1.8,2.7-3.3c0-1.9-1.6-3.5-3.6-3.5s-3.6,1.6-3.6,3.5c0,1.7,1.2,3.1,2.9,3.4
		L29,33.8l-7.1-13.7l0,0c0.1,0,0.1-0.1,0.2-0.1c1.1-0.6,1.9-1.7,1.9-3.1c0-1.9-1.6-3.5-3.6-3.5s-3.6,1.6-3.6,3.5s1.6,3.5,3.6,3.5
		h0.1L22,35.7L11.7,23.8c0.7-0.6,1.1-1.5,1.1-2.5c0-1.9-1.6-3.5-3.6-3.5s-3.6,1.6-3.6,3.5s1.6,3.5,3.6,3.5c0.4,0,0.7-0.1,1.1-0.2
		l7.8,21.2c0.4,0.4,0.9,0.9,1.3,1.4c0.9,1,1.5,2.2,2,3.4l0.2,6.9h22l0.2-6.9c0.5-1.2,1.2-2.4,2.1-3.4c0.4-0.5,0.8-1,1.3-1.4l0.6-1.7
		L55,24.7c0.3,0.1,0.7,0.1,1.1,0.1c2,0,3.6-1.6,3.6-3.5s-1.6-3.5-3.6-3.5s-3.6,1.6-3.6,3.5c0,1,0.4,1.9,1.2,2.5L43.2,35.6l1.5-15.4
		l0,0c2,0,3.5-1.6,3.5-3.5s-1.6-3.5-3.6-3.5S41,14.8,41,16.7c0,1.3,0.7,2.4,1.7,3c0.1,0.1,0.3,0.2,0.4,0.2l0,0l-7,13.7L33.4,17.3
		L33.4,17.3z M35.1,18.2c1.5-0.9,2.6-2.4,2.6-4.3c0-2.8-2.3-5-5.1-5s-5.1,2.2-5.1,5c0,1.9,1.1,3.5,2.7,4.4L28.3,29l-4.4-8.6
		c1-0.9,1.6-2.2,1.6-3.6c0-2.8-2.3-5-5.1-5s-5.1,2.2-5.1,5c0,2.3,1.6,4.3,3.8,4.8l0.9,9.5l-6.5-7.3c0.4-0.7,0.7-1.6,0.7-2.5
		c0-2.8-2.3-5-5.1-5S4,18.5,4,21.3s2.3,5,5.1,5h0.1c2.5,6.7,4.9,13.4,7.4,20.1c0.1,0.2,0.2,0.4,0.4,0.6c0.4,0.3,0.7,0.8,1.2,1.3l0,0
		c0.7,0.8,1.3,1.8,1.7,2.8l0.2,6.7c0,0.8,0.7,1.4,1.5,1.4h22c0.8,0,1.5-0.6,1.5-1.4l0.2-6.7c0.5-1,1-1.9,1.7-2.8l0,0
		c0.3-0.4,0.7-0.9,1.1-1.2c0.2-0.2,0.3-0.4,0.4-0.6l0.6-1.7l0,0l6.7-18.3c0,0,0,0,0.1,0c2.8,0,5.1-2.2,5.1-5s-2.3-5-5.1-5
		s-5.1,2.2-5.1,5c0,0.9,0.3,1.8,0.7,2.5l-6.4,7.1l1-9.6c2.1-0.6,3.7-2.5,3.7-4.8c0-2.7-2.3-5-5.1-5s-5.1,2.2-5.1,5
		c0,1.5,0.7,2.8,1.7,3.7L36.9,29L35.1,18.2z"/>
	<path class="st2" d="M59.7,21c0,0.5,0,1.1-0.2,1.5s-0.4,0.9-0.8,1.2c-0.3,0.3-0.6,0.6-1.1,0.8c-0.4,0.2-1,0.3-1.5,0.3
		c-0.4,0-0.7,0-1.1-0.1l-6.9,19.2l-0.8,1.9c-0.5,0.4-0.6,1-1,1.5c-0.9,1-1.6,2.1-2.2,3.3l-0.2,7H21.3C35.8,41,32.4,10.2,32.4,10.2
		c0.9,0,1.7,0.3,2.4,0.9c0.7,0.6,1.3,1.4,1.4,2.3c0.1,0.8,0,1.8-0.5,2.5c-0.5,0.7-1.1,1.5-2,1.7l1.9,13c0.2,0.9,1.4,1.1,1.9,0.3
		l5.5-11c-0.8-0.3-1.4-0.9-1.7-1.6c-0.4-0.8-0.5-1.9-0.3-2.7c0.3-0.8,0.9-1.6,1.7-2.1c0.8-0.4,1.9-0.6,2.7-0.4
		c0.9,0.2,1.6,0.8,2.1,1.5s0.9,1.4,0.8,2.3c-0.1,0.9-0.4,1.8-1.1,2.4s-1.5,1-2.4,1l-1.4,12.1c-0.1,1,1.1,1.5,1.7,0.8l8.3-9.5
		c-0.4-0.4-0.8-0.9-1-1.4s-0.3-1.1-0.2-1.7s0.3-1.1,0.7-1.6s0.9-0.8,1.4-1c0.6-0.2,1.2-0.3,1.8-0.3s1.3,0.1,1.8,0.5
		c0.5,0.3,1,0.7,1.3,1.3C59.6,19.9,59.7,21,59.7,21z"/>
	<path class="st3" d="M42.6,51.1h-20v-1h20V51.1z"/>
	<path class="st3" d="M19.9,46.1c0,0,0,0-0.3-0.4s-0.3-0.4-0.3-0.4l0,0l0,0l0,0l0,0l0,0c0,0,0.1-0.1,0.2-0.1
		c0.1-0.1,0.4-0.2,0.7-0.3c0.6-0.3,1.4-0.7,2.5-1c2.2-0.8,5.5-1.5,9.9-1.5s7.6,0.7,9.9,1.5c1.1,0.4,2,0.8,2.5,1
		c0.3,0.1,0.5,0.3,0.7,0.3c0.1,0,0.1,0.1,0.2,0.1l0,0l0,0l0,0l0,0l0,0c0,0,0,0-0.3,0.4s-0.3,0.4-0.3,0.4l0,0l0,0l0,0
		c0,0-0.1,0-0.1-0.1c-0.1-0.1-0.3-0.2-0.6-0.3c-0.5-0.3-1.3-0.6-2.4-1c-2.1-0.7-5.3-1.4-9.5-1.4s-7.4,0.7-9.5,1.4
		c-1.1,0.4-1.9,0.7-2.4,1c-0.3,0.1-0.5,0.2-0.6,0.3C20,46,20,46.1,19.9,46.1L19.9,46.1L19.9,46.1L19.9,46.1z"/>
	<path class="st3" d="M42.6,55h-20v-1h20V55z"/>
</g>
</svg>
