<?xml version="1.0" encoding="utf-8"?>
<!-- Generator: Adobe Illustrator 28.1.0, SVG Export Plug-In . SVG Version: 6.00 Build 0)  -->
<svg version="1.1" id="Layer_1" xmlns="http://www.w3.org/2000/svg" xmlns:xlink="http://www.w3.org/1999/xlink" x="0px" y="0px"
	 viewBox="0 0 65 65" style="enable-background:new 0 0 65 65;" xml:space="preserve">
<style type="text/css">
	.st0{fill:#FFFFFF;}
	.st1{fill:#845F4B;}
	.st2{opacity:0.15;fill:#492A1B;enable-background:new    ;}
	.st3{fill-rule:evenodd;clip-rule:evenodd;fill:#845F4B;}
	.st4{fill-rule:evenodd;clip-rule:evenodd;fill:#492A1B;}
</style>
<g>
	<path class="st0" d="M20.8,58.5c-0.6,0-1-0.4-1-1c0-10.7,5.9-14.8,6.1-14.9c4.6-3.8,7.2-6.9,8.7-9.3c-1.7,1-3.4,1.2-4.9,1.2
		c-1.5,0-2.8-0.3-3.5-0.5L21,38.1c-0.2,0.1-0.4,0.2-0.6,0.2c-0.2,0-0.4-0.1-0.6-0.2c-3.2-2.2-5.3-7.8-5.4-8c-0.1-0.4,0-0.8,0.3-1.1
		l8.5-7.8V19c0-0.4,0.2-0.7,0.6-0.9c2.3-1.1,4.6-2.5,6.9-4.2c0.8-0.7,0.7-1.9-0.2-3.8c-0.1-0.2-0.1-0.3-0.2-0.3
		c-0.1-0.3,0-0.6,0.1-0.9c0.2-0.3,0.5-0.4,0.8-0.4c1.9,0,3.4,0.6,4.4,1.7c1,1,1.3,2.3,1.4,3.2c12.8,0.7,13.5,15.5,13.5,15.6l0,28.6
		c0,0.6-0.4,1-1,1H20.8z"/>
	<path class="st1" d="M26.7,24.7c0,0-0.1-4.5,4-3C30.7,21.6,30.6,24.2,26.7,24.7z"/>
	<path class="st2" d="M49.6,28.9v28.6H20.8c0,0,17.2-12.6,18.2-25.5c1-12.6-7.3-22.2-7.7-22.6c5.2,0,4.9,4.8,4.9,4.8
		C49.1,14.2,49.6,28.9,49.6,28.9z"/>
	<path class="st3" d="M47.7,55.1H23v-1h24.7V55.1z"/>
	<path class="st3" d="M47.7,51.2H24v-1h23.7V51.2z"/>
	<path class="st3" d="M36.2,17.6c0,0,0,0,0.1-0.5s0.1-0.5,0.1-0.5l0,0l0,0l0,0c0,0,0,0,0.1,0s0.2,0,0.3,0.1c0.3,0.1,0.6,0.2,1.1,0.3
		c0.9,0.3,2.1,0.9,3.3,1.8c2.4,1.8,4.9,5.1,5.3,10.7l0,0v21.2h-0.9V29.6c-0.4-5.3-2.7-8.3-4.9-10c-1.1-0.8-2.2-1.4-3-1.7
		c-0.4-0.2-0.7-0.2-1-0.3C36.4,17.6,36.4,17.6,36.2,17.6C36.3,17.6,36.2,17.6,36.2,17.6L36.2,17.6L36.2,17.6z"/>
	<path class="st4" d="M50.9,29.2c0,0-0.1-1.9-0.2-2.7C50.4,25,50,23.1,49,21.1c-0.9-2-2.3-4-4.4-5.6c-1.8-1.4-4.2-2.3-7-2.5
		c-0.1-0.5-0.2-1-0.5-1.6c-0.4-0.8-1-1.6-1.9-2.3c-1-0.6-2.2-1-3.7-1c-0.5,0-0.9,0.3-1.2,0.7C29.9,9,29.9,9.6,30.1,10
		c0,0.1,0.1,0.1,0.1,0.2c0.2,0.3,0.5,0.9,0.6,1.6c0.2,0.8,0.1,1.4-0.3,1.8c-2.2,1.6-4.5,3-6.8,4.2c-0.5,0.2-0.8,0.7-0.8,1.3v2
		l-8.4,7.7c-0.8,0.8-0.4,1.6-0.4,1.7c0.1,0.2,0.2,0.4,0.3,0.7c0.3,0.6,0.6,1.3,1.1,2.2c0.9,1.6,2.3,3.8,4.1,5c0.5,0.4,1.1,0.4,1.6,0
		l5.2-3.9c0.2,0.1,0.4,0.1,0.6,0.2c0.9,0.2,2.1,0.4,3.4,0.3c0.9-0.1,1.9-0.2,2.9-0.6c-1.5,2.1-3.9,4.7-7.7,7.8
		c0,0.1-0.1,0.1-0.2,0.2c-0.1,0.2-0.4,0.4-0.7,0.7c-0.6,0.6-1.4,1.5-2.2,2.7c-1.6,2.4-3.1,6.2-3.1,11.7c0,0.8,0.6,1.4,1.4,1.4h28.8
		c0.8,0,1.4-0.6,1.4-1.4L50.9,29.2z M49.5,57.5H20.7c0-0.5,0-0.9,0-1.4c0.5-9.3,5.7-12.7,5.7-12.7c5.3-4.4,8.1-8,9.5-10.5
		c1.4-2.6,1.5-4,1.5-4c-0.8,1.3-1.7,2.3-2.6,3c-4,2.9-8.8,0.9-8.8,0.9l-5.7,4.4c-2.7-1.9-4.5-6.3-4.9-7.3l0,0l8.8-8.1V19
		c2.5-1.2,4.9-2.7,7.1-4.3c1.2-1.1,1.1-2.7,0.7-3.8c-0.2-0.7-0.5-1.2-0.6-1.4V9.4c0.6,0,1.2,0.1,1.7,0.2c2.7,0.7,3.1,3.1,3.2,4.2
		c0,0.3,0,0.4,0,0.4c0.4,0,0.9,0,1.3,0.1c11.4,1,11.9,14.3,11.9,14.6V29l0,0V57.5z"/>
</g>
</svg>
