<?xml version="1.0" encoding="utf-8"?>
<!-- Generator: Adobe Illustrator 28.1.0, SVG Export Plug-In . SVG Version: 6.00 Build 0)  -->
<svg version="1.1" id="Layer_1" xmlns="http://www.w3.org/2000/svg" xmlns:xlink="http://www.w3.org/1999/xlink" x="0px" y="0px"
	 viewBox="0 0 65 65" style="enable-background:new 0 0 65 65;" xml:space="preserve">
<style type="text/css">
	.st0{fill:none;}
	.st1{fill:#FFFFFF;}
	.st2{opacity:0.15;fill:#492A1B;enable-background:new    ;}
	.st3{fill-rule:evenodd;clip-rule:evenodd;fill:#845F4B;}
	.st4{fill-rule:evenodd;clip-rule:evenodd;fill:#492A1B;}
</style>
<g>
	<rect x="16" y="9" class="st0" width="33" height="50"/>
	<path class="st1" d="M17.5,58.5c-0.3,0-0.6-0.1-0.8-0.4c-0.2-0.2-0.3-0.5-0.2-0.8c0.1-0.4,0.7-4.1,1.3-5.5c0.4-1,1.1-1.7,1.8-2.3
		c0.6-0.5,1.1-1,1.2-1.6c0.1-0.5,0.5-0.8,1-0.8h1.9c-4.3-3.3-6.4-6.4-6.4-9.4c0-6,5.5-13.5,10.4-19c-0.9-1-1.4-2.3-1.4-3.6
		c0-3.2,2.8-5.8,6.2-5.8c3.5,0,6.2,2.5,6.2,5.8c0,1.7-0.8,3.2-2.2,4.4l0,0c0,0-0.6,0.6-1.4,1.6c-1.4,1.7-4.8,6-5.6,9
		c-0.5,2.2-0.4,4.2-0.1,5.8c0.7-2.5,2.1-6,4.5-9.2c1.5-1.9,2.9-3.5,4.5-4.8c0.2-0.1,0.4-0.2,0.6-0.2c0,0,0.1,0,0.1,0
		c0.3,0,0.5,0.2,0.7,0.4c5.1,6.4,7.7,11.7,7.7,15.8c0,3-2.2,6.1-6.4,9.4h1.9c0.5,0,0.9,0.3,1,0.8c0.1,0.6,0.6,1,1.2,1.6
		c0.6,0.6,1.3,1.2,1.7,2.2c0.6,0.9,1,2.7,1.4,4.5c0.1,0.3,0.1,0.6,0.2,0.7c0.1,0.1,0.1,0.3,0.1,0.4c0,0.6-0.4,1-1,1H17.5z"/>
	<path class="st2" d="M32.5,10.5c2.9,0,5.5,2.1,5.5,4.8c0,1.4-1.7,3.8-1.7,3.8c0.1-0.1-0.8,0.6-1.7,1.6L32.5,10.5z"/>
	<path class="st2" d="M47.5,57.5H22.9c0.9-0.8,1.7-1.7,2.5-2.6c0.9-1,1.7-2,2.4-3.1c5.6-8,7.1-17.1,7.1-24.7
		c1.2-1.6,2.6-3.2,4.3-4.6c3.7,4.6,7.9,10.5,7.9,15.3c0,4-4.4,7.7-8.4,10.3h4.6c0.4,1.7,2.4,2.3,3,4C46.7,53.5,47.5,57.5,47.5,57.5z
		"/>
	<path class="st3" d="M44.9,55.5H20.1v-1h24.8V55.5z"/>
	<path class="st3" d="M42.8,51.5H22.2v-1h20.6C42.8,50.5,42.8,51.5,42.8,51.5z"/>
	<path class="st4" d="M48.5,55.2c-0.2-1.1-0.5-2.5-0.8-3.3c-0.4-1.2-1.2-2-1.8-2.5l-0.1-0.1c-0.7-0.6-0.9-0.9-1-1.3
		c-0.2-0.6-0.8-1.1-1.5-1.1h-0.5c0.8-0.6,1.6-1.3,2.3-2.1c1.7-1.8,3.2-4.2,3.2-6.7c0-2.8-1.1-5.7-2.6-8.4c-1.5-2.8-3.4-5.5-5.3-7.8
		c-0.3-0.4-0.7-0.6-1.1-0.6c-0.5-0.1-0.9,0-1.2,0.3c-1.8,1.5-3.4,3.2-4.6,4.9c-1.7,2.3-2.9,4.8-3.7,6.9c0-0.9,0.1-1.9,0.4-3
		c0.3-1.3,1.1-2.8,2.2-4.5c1.1-1.6,2.3-3.2,3.2-4.3c0.4-0.5,0.8-0.9,1-1.2c0.1-0.1,0.2-0.2,0.3-0.3C37,20,37,20,37,20
		c1.3-1.1,2.2-2.7,2.2-4.6c0-3.6-3.1-6.3-6.8-6.3s-6.8,2.8-6.8,6.3c0,1.4,0.4,2.6,1.2,3.6c-2,2.3-4.3,5.1-6.2,8.1
		c-2.2,3.5-4,7.4-4,10.9c0,2.5,1.4,4.8,3.2,6.7c0.7,0.7,1.5,1.4,2.3,2.1h-0.5c-0.7,0-1.3,0.4-1.5,1.1c-0.1,0.4-0.3,0.7-1,1.3
		L19,49.3c-0.5,0.5-1.4,1.3-1.8,2.5c-0.3,0.7-0.6,2.2-0.8,3.3c-0.1,0.5-0.4,2.2-0.4,2.2c-0.1,0.4,0,0.9,0.3,1.2
		c0.3,0.3,0.7,0.5,1.2,0.5h30c0.8,0,1.4-0.6,1.4-1.4C48.9,57.5,48.6,55.8,48.5,55.2z M17.5,57.6c0,0,0.2-0.7,0.4-1.6
		c0.3-1.3,0.6-3,0.9-3.8c0.3-0.8,0.9-1.3,1.5-1.9c0.6-0.6,1.3-1.2,1.5-2.1h5.1c-0.7-0.5-1.5-1-2.2-1.5c-3.3-2.5-6.4-5.6-6.4-8.9
		c0-5.7,5.6-13.1,9.8-17.8c0.3-0.4,0.7-0.7,1-1.1c0-0.1-0.1-0.1-0.2-0.2c-0.9-0.9-1.5-2.1-1.5-3.4c0-2.7,2.3-4.8,5.2-4.8
		c2.9,0,5.2,2.2,5.2,4.8c0,1.5-0.7,2.7-1.8,3.6c0,0-0.6,0.7-1.5,1.7c-1.9,2.3-5.1,6.4-5.8,9.4c-0.7,2.8-0.4,5.2,0,7
		c0.4,1.8,1,2.9,1,2.9s0.1-1.2,0.6-2.9c0.6-2.5,2-6.2,4.5-9.7c0.9-1.3,2-2.5,3.2-3.6c0.4-0.3,0.8-0.7,1.2-1c0.3,0.4,0.6,0.8,0.9,1.2
		c3.4,4.4,6.6,9.7,6.6,14c0,3.3-3.1,6.5-6.4,8.9c-0.7,0.5-1.5,1-2.2,1.5h5.1c0.2,0.9,0.9,1.5,1.5,2.1c0.6,0.5,1.2,1.1,1.5,1.9
		c0.3,0.7,0.7,2.5,0.9,3.8c0.2,0.9,0.3,1.5,0.3,1.5H17.5z"/>
</g>
</svg>
