<?xml version="1.0" encoding="utf-8"?>
<!-- Generator: Adobe Illustrator 28.1.0, SVG Export Plug-In . SVG Version: 6.00 Build 0)  -->
<svg version="1.1" id="Layer_1" xmlns="http://www.w3.org/2000/svg" xmlns:xlink="http://www.w3.org/1999/xlink" x="0px" y="0px"
	 viewBox="0 0 65 65" style="enable-background:new 0 0 65 65;" xml:space="preserve">
<style type="text/css">
	.st0{fill:#FFFFFF;}
	.st1{fill-rule:evenodd;clip-rule:evenodd;fill:#492A1B;}
	.st2{opacity:0.15;fill:#492A1B;enable-background:new    ;}
	.st3{fill-rule:evenodd;clip-rule:evenodd;fill:#845F4B;}
</style>
<g>
	<g>
		<path class="st0" d="M21,57.8c-0.3,0-0.5-0.2-0.5-0.5v-7.4C13.5,45.5,7.2,36.1,7,29.6c-0.1-2.7,0.9-4.8,2.8-6.1
			c1.2-0.8,2.6-1.2,4.2-1.2c3,0,6.1,1.4,8.8,3.9c0.3-1.8,1.5-5.4,6.1-8.2l0.6-3.4H26c-0.3,0-0.5-0.2-0.5-0.5V9.6
			c0-0.3,0.2-0.5,0.5-0.5h3.7V5.3c0-0.3,0.2-0.5,0.5-0.5H35c0.3,0,0.5,0.2,0.5,0.5V9h3.7c0.3,0,0.5,0.2,0.5,0.5V14
			c0,0.3-0.2,0.5-0.5,0.5h-3.6l0.6,3.4c4.6,2.8,5.8,6.4,6.1,8.2c2.7-2.5,5.8-3.8,8.7-3.8c1.6,0,3,0.4,4.2,1.2
			c1.9,1.3,2.9,3.5,2.8,6.2c-0.2,7.1-7.1,16.3-13.3,20.2v7.5c0,0.3-0.2,0.5-0.5,0.5H21z"/>
		<path class="st0" d="M35,5.3v4.2h4.2V14H35l0.7,4.2c5.8,3.4,6.2,8.2,6.2,8.9c3.1-3.1,6.3-4.4,9.1-4.4c1.5,0,2.8,0.4,3.9,1.1
			c7.2,5-1.8,20.2-10.7,25.7v7.8H21v-7.7c-9-5.4-18.1-20.8-10.9-25.7c1.2-0.8,2.5-1.1,3.9-1.1c2.8,0,6.1,1.3,9.2,4.5
			c0,0-0.1-5.3,6.2-9l0.7-4.2H26V9.6h4.2V5.3H35 M35,4.3h-4.8c-0.6,0-1,0.4-1,1v3.3H26c-0.6,0-1,0.4-1,1v4.5c0,0.6,0.4,1,1,1h2.9
			l-0.4,2.6c-4,2.5-5.5,5.6-6,7.6c-2.7-2.3-5.6-3.5-8.5-3.5c-1.7,0-3.2,0.4-4.5,1.3c-2.1,1.4-3.1,3.7-3,6.6
			c0.2,6.6,6.4,16,13.5,20.5v7.1c0,0.6,0.4,1,1,1h23.2c0.6,0,1-0.4,1-1V50c6.2-4.1,13.1-13.3,13.3-20.5c0.1-2.9-1-5.2-3-6.6
			c-1.3-0.8-2.8-1.3-4.5-1.3c-2.8,0-5.7,1.2-8.4,3.4c-0.5-2-2-5.1-6-7.5L36.2,15h3c0.6,0,1-0.4,1-1V9.5c0-0.6-0.4-1-1-1H36V5.3
			C36,4.7,35.5,4.3,35,4.3L35,4.3z"/>
	</g>
	<path class="st1" d="M44.2,49.6L44.2,49.6L44.2,49.6c0.4-0.3,0.8-0.6,1.2-0.8c8.4-6.1,16.3-20.1,9.4-24.7c-2.8-1.9-7.3-1.5-11.7,2
		c-0.5,0.4-0.9,0.8-1.4,1.2c0-0.2,0-0.9-0.3-1.8c-0.5-1.9-2-4.8-5.9-7.1l-0.7-4.2H39V9.7h-4.2V5.4H30v4.2h-4v4.5h4.2l-0.7,4.2
		c-4,2.3-5.4,5.3-5.9,7.2c-0.3,1.1-0.3,1.8-0.3,1.8c-0.5-0.5-0.9-0.9-1.4-1.3c-2.7-2.2-5.4-3.2-7.8-3.2c-1.4,0-2.8,0.4-3.9,1.1
		C2.9,28.9,12,44.3,21,49.8v7.7h23.2V49.6z M19.5,50.6v6.9c0,0.8,0.7,1.5,1.5,1.5h23.2c0.8,0,1.5-0.7,1.5-1.5v-7
		c4.5-3,8.8-8.2,11.2-13.2c1.3-2.7,2.1-5.4,2.1-7.9c0-2.6-1-4.9-3.3-6.5c-3.4-2.3-8.4-1.8-12.9,1.7c-0.7-2-2.3-4.8-5.8-7l-0.3-1.8
		h2.4c0.8,0,1.5-0.7,1.5-1.5V9.8c0-0.8-0.7-1.5-1.5-1.5h-2.7V5.4c0-0.8-0.7-1.5-1.5-1.5h-4.8c-0.8,0-1.5,0.7-1.5,1.5v2.7H26
		c-0.8,0-1.5,0.7-1.5,1.5v4.5c0,0.8,0.7,1.5,1.5,1.5h2.4l-0.3,1.9c-3.1,2-4.7,4.3-5.5,6.2c-0.1,0.3-0.2,0.6-0.3,0.8
		c-2.7-2.1-5.6-3.1-8.2-3.1c-1.7,0-3.4,0.4-4.8,1.4l0,0C7,24.4,6,26.8,6,29.4c0,2.5,0.8,5.3,2.1,8C10.6,42.5,15,47.6,19.5,50.6z"/>
	<path class="st2" d="M44.2,49.6v7.8H21c16-25,11.5-52,11.5-52h2.4v4.2h4.2L39,14.2h-4.2l0.8,4.1c5.8,3.4,6.2,8.2,6.2,8.9
		c4.7-4.7,9.9-5.3,13-3.3C62.1,28.9,53.1,44.1,44.2,49.6L44.2,49.6z"/>
	<path class="st3" d="M18,27.1c-1.8-1.1-3.5-1.2-5.1-0.2c-0.8,0.5-1.3,1.2-1.4,2.1c-0.2,0.9,0,1.9,0.4,3.1c0.8,2.4,2.6,5.2,4.7,7.9
		s4.4,5.2,6.2,7.1c0.9,0.9,1.7,1.7,2.2,2.2c0.3,0.3,0.5,0.5,0.6,0.6s0.1,0.1,0.2,0.2l0,0l0,0c0,0,0,0-0.3,0.4s-0.3,0.4-0.3,0.4l0,0
		l0,0l0,0c0,0-0.1-0.1-0.2-0.2c-0.2-0.1-0.4-0.4-0.6-0.6c-0.6-0.5-1.3-1.3-2.2-2.2c-1.8-1.9-4.2-4.4-6.3-7.1c-2.1-2.7-4-5.6-4.9-8.2
		c-0.4-1.3-0.6-2.5-0.5-3.6c0.2-1.1,0.8-2.1,1.9-2.8c2-1.3,4.1-1,6.1,0.2s3.9,3.3,5.5,5.9c3.3,5.2,5.8,12.4,6.1,18.2l-1,0.1
		c-0.3-5.6-2.7-12.7-5.9-17.7C21.5,30.2,19.8,28.2,18,27.1z"/>
	<path class="st3" d="M46.5,26.2c2-1.2,4.1-1.5,6.1-0.2c1.1,0.7,1.7,1.6,1.9,2.8c0.2,1.1,0,2.3-0.5,3.6c-0.9,2.6-2.8,5.5-5,8.2
		c-2.1,2.7-4.5,5.3-6.4,7.1c-0.9,0.9-1.7,1.7-2.3,2.2c-0.3,0.3-0.5,0.5-0.7,0.6c-0.1,0.1-0.1,0.1-0.2,0.2l0,0l0,0l0,0
		c0,0,0,0-0.3-0.4s-0.3-0.4-0.3-0.4l0,0l0,0l0,0c0,0,0.1-0.1,0.2-0.2c0.1-0.1,0.4-0.3,0.6-0.6c0.6-0.5,1.3-1.3,2.3-2.2
		c1.8-1.9,4.2-4.4,6.3-7.1c2.1-2.7,4-5.5,4.8-7.9c0.4-1.2,0.6-2.3,0.4-3.1c-0.1-0.9-0.6-1.6-1.4-2.1c-1.6-1-3.3-0.9-5,0.2
		c-1.8,1.1-3.5,3.1-5.1,5.6c-3.2,5.1-5.5,12.1-5.8,17.8l-1-0.1c0.3-5.8,2.7-13,6-18.2C42.7,29.6,44.5,27.4,46.5,26.2z"/>
	<path class="st3" d="M32.4,21.2L32.4,21.2c2.6,0.2,4.5,1.2,5.7,2.7s1.8,3.3,2.1,5.1c0.3,1.8,0.3,3.6,0.2,4.9c0,0.7-0.1,1.2-0.2,1.6
		c0,0.2,0,0.3-0.1,0.4c0,0.1,0,0.1,0,0.1l0,0l0,0l0,0c0,0,0,0-0.5-0.1s-0.5-0.1-0.5-0.1l0,0l0,0l0,0v-0.1c0-0.1,0-0.2,0.1-0.4
		c0-0.4,0.1-0.9,0.2-1.5c0.1-1.3,0.1-2.9-0.2-4.6c-0.3-1.7-0.8-3.4-1.9-4.6c-1-1.3-2.5-2.2-4.9-2.3c-2.2,0.2-3.8,1.1-4.8,2.3
		c-1,1.3-1.6,2.9-1.8,4.6c-0.3,1.7-0.2,3.4-0.1,4.6c0,0.6,0.1,1.2,0.2,1.5c0,0.2,0,0.3,0.1,0.4v0.1l0,0l0,0l0,0c0,0,0,0-0.5,0.1
		S24.9,36,24.9,36l0,0l0,0l0,0v-0.1c0-0.1,0-0.3-0.1-0.4c-0.1-0.4-0.1-0.9-0.2-1.6c-0.1-1.3-0.1-3.1,0.1-4.9c0.3-1.8,0.9-3.6,2-5.1
		C28,22.4,29.7,21.3,32.4,21.2L32.4,21.2z"/>
	<path class="st3" d="M42.1,50.9H22.6v-1h19.6v1H42.1z"/>
	<path class="st3" d="M42.1,54.9H22.6v-1h19.6v1H42.1z"/>
</g>
</svg>
